<svg xmlns="http://www.w3.org/2000/svg" viewBox="0 0 229.29 27.32"><defs><style>.cls-1{fill:#f44d4d;}.cls-2{fill:#333;}</style></defs><g id="Layer_2" data-name="Layer 2"><g id="Layer_1-2" data-name="Layer 1"><path class="cls-1" d="M23.86.38V27.05h-6.5L6.5,10.6V27.05H0V.38H6.5L17.36,16.91V.38Z"/><path class="cls-1" d="M45.18,16.07H35.07v11H28.58V.38h6.49V10.83H45.18V.38h6.5V27.05h-6.5Z"/><path class="cls-2" d="M64.41.38H81.77v5.2H70.91v5.63H79v5.05H70.91V27.05h-6.5Z"/><path class="cls-2" d="M101.8,22.34h-10l-1.59,4.71h-6.8L93.1.38h7.52l9.65,26.67h-6.88Zm-5-14.78-3.27,9.77h6.58Z"/><path class="cls-2" d="M122.85,27.32c-5.74,0-10.22-2.85-10.41-8.25h6.92a3.06,3.06,0,0,0,3.3,3c1.9,0,3.12-.95,3.12-2.51,0-4.93-13.34-2.27-13.26-11.74,0-5.05,4.14-7.86,9.72-7.86,5.82,0,9.73,2.89,10,8h-7a2.88,2.88,0,0,0-3.08-2.77c-1.56,0-2.74.75-2.74,2.43,0,4.63,13.19,2.54,13.19,11.47C132.58,23.59,129.08,27.32,122.85,27.32Z"/><path class="cls-2" d="M153.17,16.07h-10.1v11h-6.5V.38h6.5V10.83h10.1V.38h6.5V27.05h-6.5Z"/><path class="cls-2" d="M164.35.38h6.5V27.05h-6.5Z"/><path class="cls-2" d="M188.17,27.32a13.41,13.41,0,0,1-13.71-13.68,13.68,13.68,0,0,1,27.35,0A13.36,13.36,0,0,1,188.17,27.32Zm0-5.93c4.26,0,7-3.08,7-7.75s-2.77-7.75-7-7.75-7.06,3-7.06,7.75S183.84,21.39,188.17,21.39Z"/><path class="cls-2" d="M229.29.38V27.05h-6.5L211.92,10.6V27.05h-6.49V.38h6.49l10.87,16.53V.38Z"/></g></g></svg>